#!OML:ASF X:\für Bonn\!DataBase\2005_08_12_Daniel\c3d\Daniel.ASF
:FULLY-SPECIFIED
:DEGREES
147
root -3.14814 15.9501 -1.00491 346.593 -86.1585 -357.512
lowerback 36.5278 -3.25033 3.41948
upperback 2.59558 -3.54233 -1.90659
thorax -15.8895 -1.98386 -2.26803
lowerneck 3.70491 1.35607 -3.66904
upperneck -0.754695 1.65248 1.03696
head -0.892539 0.82285 0.902293
rclavicle 2.10215e-014 -8.74653e-015
rhumerus 84.9301 -24.4689 -197.06
rradius 10.57
rwrist 167.835
rhand -26.2092 13.8091
rfingers 7.12502
rthumb 0.343726 -16.1704
lclavicle 2.10215e-014 -8.74653e-015
lhumerus 59.2739 -1.22153 92.0023
lradius 9.88379
lwrist -67.2071
lhand -15.7539 1.0383
lfingers 7.12502
lthumb 10.4376 30.7592
rfemur -16.5495 -16.8244 9.97399
rtibia 55.9494
rfoot -22.8695 13.2356
rtoes -11.1645
lfemur 157.626 172.521 -192.407
ltibia 59.2184
lfoot -22.0101 -22.266
ltoes 4.3581
148
root -3.17383 16.0642 -1.01163 345.784 -86.1324 -356.548
lowerback 35.8794 -3.17647 3.25057
upperback 2.48489 -3.51715 -1.89685
thorax -15.7573 -1.95809 -2.20012
lowerneck 3.7894 1.38729 -3.73343
upperneck -0.640854 1.68703 1.04684
head -0.873082 0.838497 0.915352
rclavicle 2.23633e-015 -7.55382e-015
rhumerus 85.0896 -24.8702 -197.373
rradius 10.6505
rwrist 167.989
rhand -26.2479 13.8779
rfingers 7.12502
rthumb 0.306284 -16.1016
lclavicle 2.23633e-015 -7.55382e-015
lhumerus 59.0576 -1.14494 92.1969
lradius 9.83694
lwrist -67.2518
lhand -15.6041 1.1382
lfingers 7.12502
lthumb 10.582 30.8518
rfemur -15.3004 -15.966 10.2795
rtibia 53.6955
rfoot -23.1364 12.0529
rtoes -11.3437
lfemur 158.651 173.566 -192.718
ltibia 57.3975
lfoot -22.1068 -20.9632
ltoes 3.82272
149
root -3.20233 16.1732 -1.02004 345.174 -86.1039 -355.821
lowerback 35.2378 -3.10734 3.1058
upperback 2.38954 -3.49004 -1.90186
thorax -15.607 -1.93391 -2.16179
lowerneck 3.97512 1.41692 -3.81149
upperneck -0.588898 1.71531 1.1042
head -0.891021 0.85081 0.945448
rclavicle 1.40143e-014 2.78299e-015
rhumerus 85.3523 -25.2667 -197.809
rradius 10.6867
rwrist 168.157
rhand -26.2961 14
rfingers 7.12502
rthumb 0.259779 -15.9796
lclavicle 1.40143e-014 2.78299e-015
lhumerus 58.8334 -1.09346 92.3708
lradius 9.80182
lwrist -67.2108
lhand -15.5157 1.2055
lfingers 7.12502
lthumb 10.6673 30.9147
rfemur -14.0047 -14.997 10.6137
rtibia 51.442
rfoot -23.4196 10.7202
rtoes -11.7176
lfemur 159.736 174.67 -193.009
ltibia 55.5819
lfoot -22.2316 -19.602
ltoes 3.40154
150
root -3.23214 16.2796 -1.02919 344.377 -86.0863 -354.942
lowerback 34.6225 -3.03603 2.9216
upperback 2.29662 -3.47237 -1.89932
thorax -15.4583 -1.91135 -2.08856
lowerneck 4.19191 1.46423 -3.94519
upperneck -0.539258 1.76315 1.19766
head -0.916874 0.872387 0.995948
rclavicle 2.86747e-014 7.95139e-015
rhumerus 85.438 -25.6917 -197.928
rradius 10.7268
rwrist 168.023
rhand -26.2764 14.074
rfingers 7.12502
rthumb 0.278776 -15.9055
lclavicle 2.86747e-014 7.95139e-015
lhumerus 58.6119 -1.00121 92.5396
lradius 9.74568
lwrist -67.1708
lhand -15.467 1.24529
lfingers 7.12502
lthumb 10.7143 30.9521
rfemur -12.6815 -13.9493 10.9424
rtibia 49.2027
rfoot -23.6876 9.32482
rtoes -12.1686
lfemur 160.854 175.834 -193.308
ltibia 53.7755
lfoot -22.3314 -18.2092
ltoes 2.9669
151
root -3.26396 16.3813 -1.03824 343.511 -86.0655 -353.998
lowerback 33.9908 -2.9709 2.7556
upperback 2.20963 -3.45772 -1.91833
thorax -15.2944 -1.89221 -2.04767
lowerneck 4.39975 1.51026 -4.02535
upperneck -0.500387 1.81148 1.26534
head -0.943675 0.894439 1.02921
rclavicle 2.73329e-014 -2.38542e-015
rhumerus 85.6196 -26.0954 -198.237
rradius 10.7791
rwrist 167.992
rhand -26.2078 14.2057
rfingers 7.12502
rthumb 0.345051 -15.7737
lclavicle 2.73329e-014 -2.38542e-015
lhumerus 58.3503 -0.926517 92.6859
lradius 9.74181
lwrist -67.0708
lhand -15.4847 1.23469
lfingers 7.12502
lthumb 10.6972 30.9424
rfemur -11.3609 -12.8341 11.2649
rtibia 46.9973
rfoot -23.9647 7.90062
rtoes -12.5988
lfemur 161.978 177.054 -193.625
ltibia 51.9859
lfoot -22.4175 -16.7464
ltoes 2.49323
152
root -3.29707 16.4789 -1.049 343.114 -86.0554 -353.542
lowerback 33.3652 -2.90211 2.60492
upperback 2.12514 -3.42786 -1.92082
thorax -15.1245 -1.8671 -2.00306
lowerneck 4.62145 1.5464 -4.11018
upperneck -0.474586 1.84515 1.32274
head -0.976619 0.909302 1.06033
rclavicle 1.64494e-014 3.97569e-015
rhumerus 85.7536 -26.4981 -198.44
rradius 10.8383
rwrist 167.874
rhand -26.1289 14.3472
rfingers 7.12502
rthumb 0.421256 -15.6321
lclavicle 1.64494e-014 3.97569e-015
lhumerus 58.0597 -0.868659 92.8467
lradius 9.77227
lwrist -66.9712
lhand -15.4892 1.27434
lfingers 7.12502
lthumb 10.6929 30.9822
rfemur -10.0606 -11.6281 11.6526
rtibia 44.8531
rfoot -24.2238 6.40129
rtoes -12.9734
lfemur 163.117 178.299 -193.901
ltibia 50.2185
lfoot -22.4315 -15.2864
ltoes 2.19742
153
root -3.33071 16.5722 -1.05946 342.502 -86.0451 -352.891
lowerback 32.7649 -2.84054 2.44244
upperback 2.04027 -3.41047 -1.92803
thorax -14.9623 -1.84709 -1.95063
lowerneck 4.77283 1.59616 -4.22783
upperneck -0.391038 1.89836 1.41412
head -0.980945 0.933026 1.10765
rclavicle 7.7526e-015 -4.77083e-015
rhumerus 85.7688 -26.9127 -198.426
rradius 10.9069
rwrist 167.609
rhand -26.0143 14.4327
rfingers 7.12502
rthumb 0.531949 -15.5464
lclavicle 7.7526e-015 -4.77083e-015
lhumerus 57.6976 -0.770222 92.9918
lradius 9.91752
lwrist -66.8716
lhand -15.5228 1.25614
lfingers 7.12502
lthumb 10.6605 30.9657
rfemur -8.77306 -10.355 12.0311
rtibia 42.7827
rfoot -24.4562 4.92022
rtoes -13.3065
lfemur 164.259 179.581 -194.196
ltibia 48.4967
lfoot -22.45 -13.8257
ltoes 1.91931
154
root -3.36551 16.6599 -1.0702 342.057 -86.048 -352.395
lowerback 32.1825 -2.78444 2.28593
upperback 1.91738 -3.39413 -1.93515
thorax -14.8493 -1.82762 -1.89951
lowerneck 4.95083 1.65406 -4.31051
upperneck -0.28929 1.96209 1.48705
head -0.983744 0.961648 1.14274
rclavicle 1.67973e-014 8.34896e-015
rhumerus 85.7592 -27.3614 -198.316
rradius 10.9424
rwrist 167.206
rhand -25.871 14.5945
rfingers 7.12502
rthumb 0.670367 -15.3842
lclavicle 1.67973e-014 8.34896e-015
lhumerus 57.2663 -0.675883 93.1366
lradius 10.0911
lwrist -66.834
lhand -15.6041 1.26379
lfingers 7.12502
lthumb 10.5821 30.9774
rfemur -7.54236 -9.04458 12.4327
rtibia 40.7923
rfoot -24.6775 3.44592
rtoes -13.5432
lfemur 165.362 180.846 -194.484
ltibia 46.8323
lfoot -22.4684 -12.3373
ltoes 1.59864
